<?xml version="1.0" standalone="no"?>
<!DOCTYPE svg PUBLIC "-//W3C//DTD SVG 20010904//EN"
 "http://www.w3.org/TR/2001/REC-SVG-20010904/DTD/svg10.dtd">
<svg version="1.0" xmlns="http://www.w3.org/2000/svg"
 width="200.000000pt" height="200.000000pt" viewBox="0 0 200.000000 200.000000"
 preserveAspectRatio="xMidYMid meet">

<g transform="translate(0.000000,200.000000) scale(0.100000,-0.100000)"
fill="#000000" stroke="none">
<path d="M315 1886 c-16 -7 -41 -26 -55 -41 l-25 -27 -3 -767 -2 -768 23 -34
c29 -43 60 -59 119 -59 36 0 54 6 79 27 61 52 59 24 59 822 0 802 1 788 -60
831 -37 26 -98 34 -135 16z"/>
<path d="M922 463 c-35 -7 -90 -68 -98 -108 -9 -51 20 -121 60 -146 29 -18 54
-19 380 -19 l348 0 39 39 c35 35 39 44 39 91 0 61 -20 99 -64 126 -29 18 -57
19 -356 20 -179 1 -335 0 -348 -3z"/>
</g>
</svg>
