<?xml version="1.0" standalone="no"?>
<!DOCTYPE svg PUBLIC "-//W3C//DTD SVG 20010904//EN"
 "http://www.w3.org/TR/2001/REC-SVG-20010904/DTD/svg10.dtd">
<svg version="1.0" xmlns="http://www.w3.org/2000/svg"
 width="500.000000pt" height="500.000000pt" viewBox="0 0 500.000000 500.000000"
 preserveAspectRatio="xMidYMid meet">

<g transform="translate(0.000000,500.000000) scale(0.100000,-0.100000)"
fill="#000000" stroke="none">
<path d="M1570 2525 l0 -1195 39 0 40 0 6 58 c21 192 116 292 276 292 82 0
153 -33 249 -116 225 -195 369 -256 605 -257 290 -1 475 100 579 315 62 131
81 221 79 393 0 77 -5 160 -10 185 -8 44 -10 45 -49 48 l-41 3 -6 -50 c-12
-105 -71 -191 -159 -235 -92 -46 -147 -34 -316 68 -234 140 -338 177 -503 177
-214 0 -397 -74 -543 -218 -32 -32 -76 -84 -98 -115 -21 -32 -41 -58 -43 -58
-10 0 30 111 62 173 49 93 150 186 279 256 210 114 257 152 296 236 l23 50 3
593 3 592 -386 0 -385 0 0 -1195z"/>
</g>
</svg>
